<?xml version="1.0" encoding="UTF-8"?>
<svg width="48px" height="48px" viewBox="0 0 48 48" version="1.1" xmlns="http://www.w3.org/2000/svg" xmlns:xlink="http://www.w3.org/1999/xlink">
    <title>face mask</title>
    <g id="Page-1" stroke="none" stroke-width="1" fill="none" fill-rule="evenodd">
        <g id="Pro-Tool-Copy-2" transform="translate(-371.000000, -646.000000)">
            <g id="face-mask" transform="translate(371.000000, 646.000000)">
                <polygon id="Fill-1-Copy-14" points="0 48 48 48 48 0 0 0"></polygon>
                <polygon id="Fill-1-Copy-14" points="6 42 42 42 42 6 6 6"></polygon>
                <path d="M24,6 C31.0771346,6 36.8369788,11.962048 37,19 L37,20 L35,20 L35.0012113,27.8736706 L34.9509608,27.886272 L34.9509608,27.886272 C34.6169712,30.963476 32.5849868,33.884819 30.0002305,35.7891912 L30,36 C30,38.6887547 32.1223067,40.8818181 34.7831104,40.9953805 L35,41 L35,43 C31.4627689,43 28.5383223,40.3763578 28.0665156,36.9689288 C26.7330861,37.6249142 25.335653,38 24,38 C22.6641579,38 21.2665182,37.624808 19.9329361,36.9690042 C19.4724205,40.2987718 16.6691368,42.8801148 13.2406498,42.995941 L13,43 L13,41 C15.6887547,41 17.8818181,38.8776933 17.9953805,36.2168896 L18,36 L18.0003256,35.7896009 C15.4154462,33.8853423 13.3832753,30.9640166 13.0484803,27.8858422 L13,27.872 L13,20 L11,20 L11,19 C11,11.8202983 16.8202983,6 24,6 Z M23.9988677,26.5571389 L23.9296284,26.6343818 C23.1848791,27.4185665 22.1145655,27.928545 20.9236371,27.9930568 L20.6666667,28 L15.0811852,28.0004311 C15.7417027,32.12209 20.3034912,36 24,36 C27.6965088,36 32.2582973,32.12209 32.9188148,28.0004311 L27.3333333,28 C26.0008055,28 24.7974181,27.4422536 23.9988677,26.5571389 Z M26.99945,16.6066738 C25.8194729,18.5673916 23.7046427,19.9019991 21.2716146,19.9948272 L21,20 L15,20 L15,26 L20.6666667,26 L20.8359434,25.9948435 C22.0085933,25.9230898 22.9143433,25.1117119 22.9942614,24.1398644 L23,24 L25,24 C25,25.0327607 25.9355662,25.919673 27.1640566,25.9948435 L27.3333333,26 L33,26 L33,20 C30.4532937,20 28.22423,18.6400108 26.99945,16.6066738 Z M19.5,22 C20.3284271,22 21,22.6715729 21,23.5 C21,24.3284271 20.3284271,25 19.5,25 C18.6715729,25 18,24.3284271 18,23.5 C18,22.6715729 18.6715729,22 19.5,22 Z M28.5,22 C29.3284271,22 30,22.6715729 30,23.5 C30,24.3284271 29.3284271,25 28.5,25 C27.6715729,25 27,24.3284271 27,23.5 C27,22.6715729 27.6715729,22 28.5,22 Z M24,8 C18.261903,8 13.5499825,12.3935833 13.0448286,18.0001595 L21,18 L21.2168896,17.9953805 C23.8037821,17.8849726 25.8816786,15.808987 25.9951212,13.2228815 L26,13 L28,13 C28,15.6887547 30.1223067,17.8818181 32.7831104,17.9953805 L33,18 L34.9551817,18.000274 C34.4500817,12.3936431 29.738136,8 24,8 Z" id="Shape" fill="#181818" fill-rule="nonzero"></path>
            </g>
        </g>
    </g>
</svg>