<?xml version="1.0" encoding="UTF-8"?>
<svg width="48px" height="48px" viewBox="0 0 48 48" version="1.1" xmlns="http://www.w3.org/2000/svg" xmlns:xlink="http://www.w3.org/1999/xlink">
    <title>social distancing 02</title>
    <g id="Page-1" stroke="none" stroke-width="1" fill="none" fill-rule="evenodd">
        <g id="Pro-Tool-Copy-2" transform="translate(-319.000000, -646.000000)">
            <g id="social-distancing-02" transform="translate(319.000000, 646.000000)">
                <polygon id="Fill-1-Copy-14" points="0 48 48 48 48 0 0 0"></polygon>
                <polygon id="Fill-1-Copy-14" points="6 42 42 42 42 6 6 6"></polygon>
                <path d="M11,12 C13.199219,12 15,13.800781 15,16 C15,17.113281 14.523438,18.117188 13.78125,18.84375 C15.049851,19.7031252 15.9145408,21.1400225 15.9940156,22.7562679 L16,23 L16,28.625 L14,29.625 L14,36 L8,36 L8,29.625 L6,28.625 L6,23 C6,21.285156 6.886719,19.746094 8.21875,18.84375 C7.476563,18.117188 7,17.113281 7,16 C7,13.800781 8.800781,12 11,12 Z M37,12 C39.199219,12 41,13.800781 41,16 C41,17.113281 40.523438,18.117188 39.78125,18.84375 C41.049851,19.7031252 41.9145408,21.1400225 41.9940156,22.7562679 L42,23 L42,28.625 L40,29.625 L40,36 L34,36 L34,29.625 L32,28.625 L32,23 C32,21.285156 32.886719,19.746094 34.21875,18.84375 C33.476563,18.117188 33,17.113281 33,16 C33,13.800781 34.800781,12 37,12 Z M11,20 C9.40290179,20 8.09638074,21.2494818 8.00509492,22.8237874 L8,23 L8,27.375 L10,28.375 L10,34 L12,34 L12,28.375 L14,27.375 L14,23 C14,21.34375 12.65625,20 11,20 Z M37,20 C35.4029018,20 34.0963807,21.2494818 34.0050949,22.8237874 L34,23 L34,27.375 L36,28.375 L36,34 L38,34 L38,28.375 L40,27.375 L40,23 C40,21.34375 38.65625,20 37,20 Z M27,20.2928932 L30.7071068,24 L27,27.7071068 L25.5857864,26.2928932 L26.8777864,24.9998932 L21.4147864,24.9998932 L22.7071068,26.2928932 L21.2928932,27.7071068 L17.5857864,24 L21.2928932,20.2928932 L22.7071068,21.7071068 L21.4147864,22.9998932 L26.8777864,22.9998932 L25.5857864,21.7071068 L27,20.2928932 Z M11,14 C9.882813,14 9,14.882813 9,16 C9,17.117188 9.882813,18 11,18 C12.117188,18 13,17.117188 13,16 C13,14.882813 12.117188,14 11,14 Z M37,14 C35.882813,14 35,14.882813 35,16 C35,17.117188 35.882813,18 37,18 C38.117188,18 39,17.117188 39,16 C39,14.882813 38.117188,14 37,14 Z" id="Shape" fill="#181818" fill-rule="nonzero"></path>
            </g>
        </g>
    </g>
</svg>