<svg id="Layer_1" data-name="Layer 1" xmlns="http://www.w3.org/2000/svg" viewBox="0 0 40 40"><g id="Twitter"><path d="M35,11a12.08,12.08,0,0,1-3.54,1,6.31,6.31,0,0,0,2.71-3.49A12.11,12.11,0,0,1,30.26,10a6.08,6.08,0,0,0-4.49-2,6.24,6.24,0,0,0-6.16,6.31,6.51,6.51,0,0,0,.16,1.44A17.34,17.34,0,0,1,7.08,9.16a6.42,6.42,0,0,0-.83,3.17,6.67,6.67,0,0,0,3.07,5.25c-1,0-2.45-.32-2.45-.79v.08a6,6,0,0,0,4.6,6.19,7.38,7.38,0,0,1-1.79.22,6.8,6.8,0,0,1-1.24-.12,6.14,6.14,0,0,0,5.71,4.39,12.24,12.24,0,0,1-7.67,2.7A12.82,12.82,0,0,1,5,30.17,17.13,17.13,0,0,0,14.43,33c11.33,0,17.52-9.62,17.52-18,0-.27,0-.55,0-.82A12.64,12.64,0,0,0,35,11Z" fill="#242424"/></g></svg>