<?xml version="1.0" encoding="UTF-8"?>
<svg width="48px" height="48px" viewBox="0 0 48 48" version="1.1" xmlns="http://www.w3.org/2000/svg" xmlns:xlink="http://www.w3.org/1999/xlink">
    <title>wash hands</title>
    <g id="Page-1" stroke="none" stroke-width="1" fill="none" fill-rule="evenodd">
        <g id="Pro-Tool-Copy-2" transform="translate(-319.000000, -697.000000)">
            <g id="wash-hands" transform="translate(319.000000, 697.000000)">
                <polygon id="Fill-1-Copy-14" points="0 48 48 48 48 0 0 0"></polygon>
                <polygon id="Fill-1-Copy-14" points="6 42 42 42 42 6 6 6"></polygon>
                <path d="M39,17 L39,19 C40.5857977,19 41.9028121,20.2603787 41.9948618,21.8249549 L42,22 L42,40 L28,40 L28,37.75 L30,37.417 L30,38 L40,38 L40,22 C40,21.4740516 39.6261358,21.0626196 39.1192303,21.006527 L39,21 L37,21 L37,19 L33,19 L33,21 L31,21 C30.4740516,21 30.0626196,21.3738642 30.006527,21.8807697 L30,22 L30,26 L28,26 L28,22 C28,20.4142023 29.2603787,19.0971879 30.8249549,19.0051382 L31,19 L31,17 L39,17 Z M19.7676457,27.0020209 L22.7871777,27.7578799 C23.6325447,27.9693899 24.3123467,28.5142169 24.7285837,29.2149119 L31.8828803,27.7832709 C33.7473569,27.4103759 35.5275594,28.8121735 35.6337383,30.6845242 L35.6387397,30.8731149 C35.6387397,32.0332251 34.9960277,33.0990536 33.9816978,33.6421608 L33.7813178,33.7403019 L23.5235057,37.9688178 C23.0294107,38.1724445 22.4881187,38.2409145 21.9551457,38.1641303 L16.2539737,37.3496771 C16.049967,37.320773 15.8444625,37.3555591 15.663839,37.4465795 L15.5567087,37.5078803 L12.3613957,39.6387397 L7.23639571,31.9492869 L13.5860057,27.9805369 C15.4276937,26.8300519 17.6605507,26.4752469 19.7676457,27.0020209 Z M14.6465517,29.6758489 L10.0410837,32.5528019 L12.9160837,36.8653019 L14.4473337,35.8438179 C15.0617937,35.4336769 15.8060327,35.2658929 16.5352237,35.3692089 L22.2403017,36.1856149 C22.4153297,36.2108349 22.5958807,36.1876189 22.7617867,36.1192089 L32.9727241,31.9102239 C33.3391665,31.7426736 33.5854852,31.4000742 33.6310845,31.006153 L33.6387397,30.8613959 C33.6387397,30.1212729 33.002717,29.5987569 32.2754585,29.7442089 L25.1035837,31.1778019 C25.0934104,31.2701106 25.1043713,31.3609224 25.1025541,31.4522595 L25.0820987,31.6035829 C24.6920087,33.1653999 23.1651327,34.1942639 21.5703807,33.9668649 L16.4981147,33.2422549 L16.7793647,31.2617869 L21.8516307,31.9863959 C22.4055421,32.0657423 22.9165793,31.7531467 23.1034509,31.240881 L23.1445987,31.1055369 C23.3026897,30.4726269 22.9343127,29.8554259 22.3008487,29.6973329 L19.2813177,28.9434269 C17.7004127,28.5482009 16.0288637,28.8123329 14.6465517,29.6758489 Z M23,16 L24.1834548,17.7315667 L24.4403669,18.1285425 C24.5781663,18.346025 24.727206,18.5889705 24.875,18.84375 C25.136719,19.292969 25.382813,19.769531 25.59375,20.25 L25.746216,20.605774 C25.890137,20.9597169 26,21.3164062 26,21.75 C26,23.394531 24.644531,24.75 23,24.75 C21.355469,24.75 20,23.394531 20,21.75 C20,21.171875 20.195313,20.730469 20.40625,20.25 C20.617188,19.769531 20.863281,19.292969 21.125,18.84375 L21.3094884,18.5324251 L21.576799,18.1014908 C21.6623247,17.9669053 21.7432563,17.8424881 21.8165456,17.7315667 L23,16 Z M23,19.625 L22.5883128,20.3430623 C22.4479691,20.593281 22.3171878,20.8398436 22.21875,21.0625 C22.054688,21.433594 22,21.777344 22,21.75 C22,22.316406 22.433594,22.75 23,22.75 C23.566406,22.75 24,22.316406 24,21.75 L23.9521486,21.5556643 C23.917969,21.426758 23.8632815,21.248047 23.78125,21.0625 C23.6828128,20.8398436 23.5520314,20.593281 23.4116875,20.3430623 L23,19.625 L23,19.625 Z M38,11 L38,16 L36,16 L36,13 L34,13 L34,16 L32,16 L32,14 L28,14 L28,12 L32,12 L32,11 L38,11 Z" id="Shape" fill="#181818" fill-rule="nonzero"></path>
                <g id="icons8-hand_side_view-copy" transform="translate(20.500000, 32.500000) scale(1, -1) rotate(90.000000) translate(-20.500000, -32.500000) translate(13.500000, 18.000000)"></g>
            </g>
        </g>
    </g>
</svg>